<?xml version="1.0" encoding="utf-8"?>
<svg version="1.1" id="Layer_1" xmlns="http://www.w3.org/2000/svg" xmlns:xlink="http://www.w3.org/1999/xlink" x="0px" y="0px"
	 viewBox="0 0 400 400" style="enable-background:new 0 0 400 400;" xml:space="preserve">
<path d="M0,0v400h400V0H0z M209.6,78c10.6-13,28.9-22.9,44.5-24c2.6,17.8-4.6,35.1-14.2,47.4
	c-10.2,13.2-27.8,23.4-44.8,22.8C192,107.3,199.9,89.8,209.6,78z M302.7,315.5c-12.7,18.7-26,37-47,37.3
	c-20.5,0.5-27.4-11.9-50.9-11.9c-23.7,0-31.1,11.6-50.7,12.3c-20.1,0.7-35.4-19.9-48.6-38.5c-26.3-37.8-46.7-106.6-19.3-153.4
	c13.3-22.9,37.5-37.7,63.4-38.1c20.1-0.4,38.8,13.4,51.1,13.4c12.1,0,35.2-16.5,59-14c10,0.3,38.3,3.9,56.5,30.2
	c-1.5,0.9-33.7,19.6-33.4,58c0.4,46.1,40.9,61.3,41.4,61.5C323.9,273.3,317.9,294.2,302.7,315.5z"/>
</svg>
