<?xml version="1.0" encoding="utf-8"?>
<svg version="1.1" id="Layer_1" xmlns="http://www.w3.org/2000/svg" xmlns:xlink="http://www.w3.org/1999/xlink" x="0px" y="0px"
	 viewBox="0 0 400 400" style="enable-background:new 0 0 400 400;" xml:space="preserve">
<path fill="#61BB46" d="M239.9,101.4c9.5-12.3,16.8-29.7,14.2-47.4
	c-15.6,1.1-33.8,11-44.5,24c-9.7,11.8-17.6,29.3-14.5,46.2C212.1,124.8,229.7,114.6,239.9,101.4L239.9,101.4L239.9,101.4z"/>
<path fill="#61BB46" d="M200.7,136.7c-12.4,0-31-13.8-51.1-13.4c-25.7,0.4-49.7,14.9-63,37.6h219c5.6-5.1,10.2-7.8,10.7-8.1
	c-18.3-26.3-46.6-29.9-56.5-30.2c-1.5-0.2-2.9-0.2-4.3-0.2h-0.4C232.9,122.3,212,136.7,200.7,136.7z"/>
<path fill="#FDB827" d="M86.5,160.9c-0.1,0.2-0.2,0.4-0.3,0.5c-6.8,11.6-10.6,24.5-12.2,38h209.7c3.1-18.3,13.5-31,21.7-38.5H86.5z"/>
<path fill="#F5821F" d="M282.8,210.8c0-4,0.3-7.8,0.9-11.4H74c-1.5,12.6-0.9,25.6,1.1,38.5h213.4C285.1,230.3,282.9,221.4,282.8,210.8z
	"/>
<path fill="#E03A3E" d="M85.5,276.3h237.4c0.8-2.3,1.2-3.8,1.3-4c-0.4-0.1-24.5-9.2-35.7-34.4H75.1C77.2,251.1,80.9,264.1,85.5,276.3z"
	/>
<path fill="#963D97" d="M322.9,276.3H85.5c5.6,14.5,12.5,27.7,20,38.5c0,0,0,0,0,0h197.7C314.3,299,320.5,283.4,322.9,276.3z"/>
<path fill="#009DDC" d="M105.5,314.7C105.5,314.7,105.5,314.7,105.5,314.7c12.7,17.9,27.4,37.7,46.5,38.5h2.3
	c19.5-0.8,26.9-12.3,50.5-12.3c23.5,0,30.4,12.3,50.9,11.9c21.1-0.3,34.4-18.6,47-37.3c0.2-0.2,0.3-0.5,0.5-0.7H105.5z"/>
</svg>
